<?xml version="1.0" standalone="no"?>
<!DOCTYPE svg PUBLIC "-//W3C//DTD SVG 20010904//EN"
 "http://www.w3.org/TR/2001/REC-SVG-20010904/DTD/svg10.dtd">
<svg version="1.0" xmlns="http://www.w3.org/2000/svg"
 width="1168.000000pt" height="1168.000000pt" viewBox="0 0 1168.000000 1168.000000"
 preserveAspectRatio="xMidYMid meet">
<metadata>
Created by potrace 1.14, written by Peter Selinger 2001-2017
</metadata>
<g transform="translate(0.000000,1168.000000) scale(0.100000,-0.100000)"
fill="#000000" stroke="none">
<path d="M5950 9119 c-14 -4 -59 -17 -100 -29 -41 -12 -133 -40 -204 -62 -72
-22 -135 -41 -140 -42 -12 -3 -182 -55 -301 -93 -44 -14 -84 -26 -90 -27 -5
-2 -30 -9 -55 -16 -25 -8 -47 -14 -50 -15 -3 -1 -39 -12 -80 -24 -41 -13 -79
-24 -85 -26 -5 -1 -17 -5 -25 -9 -13 -5 -125 -39 -170 -51 -16 -4 -325 -99
-442 -136 -37 -12 -69 -21 -70 -20 -2 1 -48 -14 -103 -32 -55 -19 -103 -35
-108 -35 -17 -3 -155 -45 -190 -58 -20 -8 -38 -13 -40 -12 -2 1 -59 -16 -174
-53 -18 -5 -41 -12 -52 -14 -11 -2 -29 -9 -40 -15 -12 -6 -21 -9 -21 -6 0 3
-17 -2 -37 -11 -21 -8 -38 -14 -38 -13 0 1 -31 -8 -70 -20 -38 -12 -77 -23
-85 -25 -8 -2 -60 -18 -115 -35 -55 -17 -116 -36 -135 -41 -19 -6 -75 -23
-125 -39 -49 -15 -139 -42 -200 -60 -60 -18 -119 -36 -130 -40 -23 -9 -178
-55 -215 -65 -14 -3 -34 -10 -45 -15 -11 -4 -54 -18 -95 -30 -41 -12 -102 -30
-135 -41 -33 -11 -69 -22 -80 -24 -11 -3 -49 -14 -85 -26 -36 -11 -72 -22 -80
-24 -8 -2 -26 -8 -40 -13 -14 -5 -29 -10 -33 -10 -4 0 -20 -5 -35 -10 -15 -6
-76 -25 -137 -42 -60 -18 -135 -40 -165 -50 -30 -10 -93 -30 -140 -43 -65 -19
-324 -98 -438 -133 -7 -2 -14 -4 -17 -4 -3 0 -24 -8 -47 -16 -24 -9 -50 -17
-58 -19 -17 -3 -117 -34 -140 -42 -8 -4 -23 -8 -32 -9 -9 -2 -49 -15 -90 -28
-40 -13 -93 -30 -118 -36 -25 -7 -52 -18 -60 -25 -8 -7 -28 -17 -44 -21 -43
-10 -110 -84 -128 -141 -18 -53 -15 -221 7 -424 4 -30 7 -88 8 -127 1 -40 5
-72 8 -72 4 0 6 -15 6 -32 0 -18 3 -69 7 -113 11 -133 18 -218 21 -265 2 -25
4 -45 5 -45 1 0 3 -25 5 -55 4 -79 15 -219 21 -265 3 -22 7 -74 9 -115 2 -41
6 -93 9 -115 3 -22 8 -80 12 -130 3 -49 8 -106 10 -125 1 -19 6 -71 9 -115 4
-44 8 -96 9 -115 2 -19 6 -73 10 -120 4 -47 9 -107 11 -135 3 -27 7 -84 10
-125 8 -113 13 -168 19 -245 4 -38 9 -97 12 -130 2 -33 7 -85 9 -115 3 -30 8
-86 10 -125 3 -38 7 -92 9 -120 3 -27 7 -86 11 -130 3 -44 9 -98 11 -120 3
-22 7 -74 9 -115 4 -70 7 -103 20 -240 3 -30 7 -85 10 -122 8 -103 15 -199 20
-243 2 -22 6 -78 10 -125 12 -165 45 -232 145 -296 l45 -29 3260 0 3260 0 55
37 c90 61 122 128 135 288 3 41 8 92 11 112 5 39 12 112 19 213 2 33 5 60 5
60 4 0 9 46 14 118 3 45 8 93 10 107 2 14 7 61 11 105 3 44 8 98 11 121 8 70
14 137 19 199 8 97 12 122 19 134 4 6 2 11 -4 11 -6 0 -8 4 -5 10 3 5 8 29 10
52 3 24 7 66 10 93 3 28 7 77 10 110 3 33 8 78 10 100 2 22 6 72 10 110 3 39
8 81 10 95 2 14 7 59 10 100 4 41 9 91 11 110 14 135 13 230 -2 267 -31 73
-66 112 -133 145 l-63 32 -1858 0 c-1503 0 -1855 2 -1842 13 9 7 21 13 25 13
4 0 27 8 50 19 46 21 175 76 222 96 101 41 146 61 195 83 30 13 64 28 75 33
11 4 46 19 78 33 32 14 60 26 63 26 3 0 35 14 72 31 37 16 76 34 87 39 11 5
48 21 82 35 35 14 86 36 115 49 57 25 90 39 98 40 3 1 10 4 15 8 6 3 51 22
100 43 50 20 108 45 130 55 48 22 441 190 455 195 5 2 68 29 115 50 17 8 58
25 92 39 54 22 116 49 198 86 104 46 377 160 385 160 5 0 10 4 10 8 0 5 6 9
13 9 6 0 35 10 62 22 97 44 140 63 165 73 36 15 78 33 132 57 26 12 78 33 115
48 38 15 70 29 73 32 3 3 10 7 17 8 40 8 186 86 213 114 47 49 57 72 75 168 7
36 -13 113 -55 212 -21 49 -39 91 -39 92 0 1 -8 20 -17 42 -9 22 -17 46 -17
53 0 6 -3 12 -7 12 -3 0 -12 17 -19 38 -7 20 -24 61 -37 90 -13 29 -24 54 -24
56 0 2 -8 21 -17 42 -9 22 -17 41 -18 44 -1 3 -6 16 -12 30 -6 14 -28 66 -48
115 -38 91 -118 282 -135 323 -6 12 -14 32 -19 45 -20 50 -84 204 -98 237 -8
19 -18 44 -23 55 -4 11 -12 31 -18 45 -46 102 -112 267 -112 277 0 7 -5 13
-11 13 -6 0 -9 6 -6 14 3 7 1 18 -5 24 -6 6 -17 26 -24 44 -31 86 -50 125 -71
148 -13 14 -23 28 -23 32 0 4 -20 21 -45 38 -25 17 -45 28 -45 25 0 -3 -10 -1
-21 6 -27 14 -115 19 -149 8z"/>
<path d="M9728 8361 c-436 -218 -794 -399 -796 -403 -2 -5 -9 -8 -15 -8 -15 0
-161 -73 -165 -82 -2 -5 -10 -8 -17 -8 -16 0 -46 -71 -40 -98 2 -10 35 -81 73
-158 75 -148 103 -178 160 -172 35 4 1776 873 1807 902 13 12 25 38 28 59 4
33 -6 59 -70 187 -41 82 -82 152 -91 155 -71 30 -32 47 -874 -374z"/>
<path d="M11529 6706 c-2 -3 -33 -8 -69 -11 -35 -3 -66 -8 -69 -10 -4 -2 -31
-6 -61 -9 -68 -8 -108 -13 -163 -22 -23 -3 -53 -8 -67 -9 -14 -2 -43 -6 -65
-10 -58 -9 -105 -15 -150 -21 -22 -3 -56 -7 -75 -10 -45 -7 -83 -12 -144 -20
-27 -3 -58 -8 -70 -10 -12 -2 -39 -6 -61 -9 -22 -2 -74 -9 -115 -15 -94 -14
-135 -20 -180 -25 -19 -2 -46 -7 -59 -9 -13 -3 -47 -8 -75 -11 -28 -2 -60 -7
-71 -9 -11 -2 -40 -7 -65 -10 -25 -3 -70 -10 -100 -15 -30 -5 -58 -7 -62 -5
-13 8 -76 -38 -87 -64 -12 -28 -10 -58 9 -192 5 -41 13 -93 16 -115 10 -75 63
-121 126 -109 18 3 47 7 63 9 42 4 125 16 155 21 14 2 108 15 210 29 102 14
201 28 220 31 36 6 63 9 140 19 25 3 56 8 70 10 14 2 45 7 70 10 25 3 52 7 60
9 8 3 42 7 75 11 33 3 69 8 80 11 11 2 40 6 65 9 25 2 54 6 65 8 11 3 61 10
110 16 109 14 142 19 175 25 14 2 52 8 85 12 33 4 63 8 68 10 4 1 14 2 21 3 8
0 28 13 43 27 24 22 28 33 27 77 0 29 -3 75 -7 102 -4 28 -9 70 -13 95 -13
104 -24 133 -56 153 -27 18 -63 29 -69 23z"/>
<path d="M9481 5214 c-28 -23 -39 -54 -91 -249 -40 -151 -16 -179 200 -231 8
-2 40 -10 70 -19 30 -9 62 -17 70 -19 8 -2 35 -10 60 -17 25 -7 50 -13 55 -15
31 -6 370 -99 422 -115 34 -10 69 -19 78 -19 8 0 23 -4 33 -9 9 -6 73 -24 142
-41 69 -18 132 -34 140 -37 8 -3 22 -7 30 -9 8 -1 31 -8 50 -13 19 -6 90 -26
158 -45 204 -56 219 -48 277 163 21 75 38 153 39 174 0 71 -50 99 -274 153 -8
2 -55 15 -105 29 -49 14 -97 27 -105 29 -8 2 -42 11 -75 20 -33 9 -71 19 -84
22 -14 3 -28 7 -33 10 -4 3 -17 7 -28 10 -11 2 -30 6 -41 9 -12 2 -63 16 -113
31 -50 14 -101 28 -113 30 -12 2 -34 9 -48 14 -14 5 -25 7 -25 4 0 -2 -8 0
-18 5 -10 5 -78 25 -152 45 -268 70 -365 96 -380 105 -8 4 -37 8 -63 8 -36 1
-55 -5 -76 -23z"/>
<path d="M9210 4063 c-18 -7 -80 -72 -80 -84 0 -4 -27 -51 -61 -103 -38 -59
-62 -109 -64 -130 -4 -44 26 -92 75 -119 19 -10 37 -23 38 -28 2 -5 9 -9 15
-9 7 0 42 -20 78 -43 36 -24 90 -58 120 -76 64 -38 89 -53 103 -64 6 -4 94
-59 196 -122 102 -63 190 -119 197 -124 7 -6 14 -11 17 -11 3 0 109 -65 237
-145 127 -80 233 -145 234 -145 2 0 23 -13 47 -29 85 -56 133 -85 139 -84 4 1
15 -7 24 -17 10 -11 23 -20 29 -20 6 0 29 -14 50 -30 22 -17 46 -30 53 -30 7
0 13 -4 13 -9 0 -5 17 -13 39 -18 53 -14 93 4 128 59 15 24 31 45 36 46 4 2 7
7 7 12 0 5 23 46 50 91 28 45 50 87 51 93 0 6 2 20 4 30 7 36 -32 81 -105 121
-20 11 -48 30 -62 41 -15 12 -41 27 -58 34 -16 7 -30 16 -30 21 0 5 -5 9 -10
9 -6 0 -23 8 -38 19 -23 16 -264 166 -313 196 -20 12 -116 70 -143 88 -11 7
-54 33 -95 59 -42 26 -81 51 -87 55 -10 8 -30 20 -76 46 -13 6 -25 15 -28 18
-3 3 -36 24 -75 47 -38 23 -75 45 -81 49 -5 4 -19 13 -30 20 -69 42 -148 92
-206 129 -37 24 -69 44 -72 44 -2 0 -47 27 -99 60 -92 57 -126 68 -167 53z"/>
</g>
</svg>
